HIERARCHY
ROOT Hips
{
	OFFSET 0.00000 0.00000 0.00000
	CHANNELS 6 Xposition Yposition Zposition Yrotation Zrotation Xrotation 
	JOINT Lumbar
	{
		OFFSET 0 0 0
		CHANNELS 3 Zrotation Xrotation Yrotation
		JOINT Neck
		{
			OFFSET 0.00 0.2701 0.00
			CHANNELS 3 Zrotation Xrotation Yrotation
			End Site
			{
				OFFSET 0.00 0.1379 0.00
			}
		}
		JOINT RightShoulder
		{
			OFFSET 0.0119 0.2289 0.1181
			CHANNELS 3 Zrotation Xrotation Yrotation
			JOINT RightElbow
			{
				OFFSET 0.00 -0.1475 0.00
				CHANNELS 2 Zrotation Yrotation
				JOINT RightWrist
				{
					OFFSET 0.00 -0.1605 0.00
					CHANNELS 2 Zrotation Xrotation
					End Site
					{
						OFFSET 0.0040 -0.1068 0.0006
					}
				}
			}
		}
		JOINT LeftShoulder
		{
			OFFSET 0.0119 0.2289 -0.1181
			CHANNELS 3 Zrotation Xrotation Yrotation
			JOINT LeftElbow
			{
				OFFSET 0.00 -0.1475 0.00
				CHANNELS 2 Zrotation Yrotation
				JOINT LeftWrist
				{
					OFFSET 0.00 -0.1605 0.00
					CHANNELS 2 Zrotation Xrotation
					End Site
					{
						OFFSET 0.0040 -0.1068 -0.0006
					}
				}
			}
		}
	}
	JOINT RightHip
	{
		OFFSET 0.0316 -0.0424 0.0458
		CHANNELS 3 Zrotation Xrotation Yrotation
		JOINT RightKnee
		{
			OFFSET 0.00 -0.2438 0.00
			CHANNELS 1 Zrotation
			JOINT RightAnkle
			{
				OFFSET 0.00 -0.2449 0.00
				CHANNELS 3 Zrotation Xrotation Yrotation
				End Site
				{
					OFFSET 0.1237 -0.0542 0.0051
				}
			}
		}
	}
	JOINT LeftHip
	{
		OFFSET 0.0316 -0.0424 -0.0458
		CHANNELS 3 Zrotation Xrotation Yrotation
		JOINT LeftKnee
		{
			OFFSET 0.00 -0.2438 0.00
			CHANNELS 1 Zrotation
			JOINT LeftAnkle
			{
				OFFSET 0.00 -0.2449 0.00
				CHANNELS 3 Zrotation Xrotation Yrotation
				End Site
				{
					OFFSET 0.1237 -0.0542 -0.0051
				}
			}
		}
	}
}
MOTION
Frames: 22
Frame Time: 0.02
0.00136 0.00014 0.00139 31.15753 -23.9425 -10.05514 47.80949 2.22502 -4.47738 -10.42715 3.65599 -0.45957 -22.26803 -9.85881 0.54539 35.47374 90.40959 7.42677 -0.48886 -28.29054 14.39895 -2.20269 43.28027 -98.47142 14.33424 0.06265 36.19098 -0.70624 -4.54228 -21.2574 -8.98636 -5.16297 -3.51527 37.75739 10.67062 3.2413 -27.02734 -8.57782 4.69829 3.25726
0.00088 7e-05 0.00089 31.29045 -23.94764 -10.04519 47.77135 2.21021 -4.52119 -10.45217 3.67364 -0.45981 -22.31684 -9.93568 0.42651 35.44674 90.43981 7.43243 -0.48409 -28.1658 14.27562 -2.22833 43.21425 -98.39771 14.3279 0.0756 36.16859 -0.84862 -4.74508 -21.25848 -8.98108 -5.15246 -3.50803 37.78414 10.50156 2.97667 -27.0244 -8.59655 4.72033 3.26862
0.0004 -0 0.00039 31.42315 -23.95278 -10.03532 47.73326 2.19537 -4.56485 -10.47719 3.69159 -0.46004 -22.36545 -10.01235 0.30795 35.41962 90.46978 7.43792 -0.47933 -28.0413 14.15264 -2.25405 43.14848 -98.32415 14.3216 0.08854 36.14623 -0.99072 -4.94738 -21.25955 -8.97584 -5.14199 -3.50081 37.81085 10.333 2.71332 -27.02148 -8.61514 4.74225 3.27992
-8e-05 -7e-05 -0.0001 31.5557 -23.95792 -10.02541 47.69523 2.1806 -4.60853 -10.50214 3.70922 -0.46028 -22.41412 -10.08899 0.18943 35.39269 90.49988 7.44354 -0.47457 -27.91692 14.02968 -2.27964 43.08267 -98.25067 14.31529 0.10145 36.1239 -1.13269 -5.14961 -21.26062 -8.97057 -5.13151 -3.49359 37.83752 10.16445 2.44958 -27.01854 -8.63379 4.76421 3.29125
-0.00056 -0.00015 -0.00059 31.68839 -23.96306 -10.01541 47.65719 2.16587 -4.65235 -10.52705 3.72648 -0.46051 -22.46299 -10.1658 0.07063 35.36592 90.53027 7.44938 -0.46978 -27.79235 13.9064 -2.30508 43.01661 -98.17702 14.30894 0.11439 36.10155 -1.27488 -5.35219 -21.26173 -8.96527 -5.121 -3.48634 37.86422 9.99541 2.18438 -27.01559 -8.6526 4.78631 3.30266
-0.00105 -0.00022 -0.00109 31.82108 -23.96819 -10.00583 47.61898 2.15082 -4.69567 -10.55233 3.74591 -0.46075 -22.51101 -10.24214 -0.04743 35.33803 90.55938 7.45415 -0.46511 -27.66802 13.78406 -2.33138 42.95145 -98.10366 14.30271 0.12732 36.07918 -1.41674 -5.55384 -21.26271 -8.96016 -5.11058 -3.47918 37.89095 9.82788 1.92492 -27.01274 -8.67073 4.80785 3.31371
-0.00152 -0.00029 -0.00158 31.95367 -23.97333 -9.99539 47.58116 2.13645 -4.73999 -10.57679 3.76078 -0.46098 -22.5608 -10.31938 -0.16683 35.31254 90.59104 7.46107 -0.4602 -27.54335 13.65992 -2.35597 42.88452 -98.02987 14.29628 0.14023 36.05684 -1.55914 -5.75737 -21.26392 -8.95465 -5.09999 -3.47185 37.91757 9.6575 1.65423 -27.00967 -8.6902 4.83049 3.32546
-0.00201 -0.00036 -0.00208 32.08628 -23.97849 -9.98577 47.54296 2.1214 -4.78329 -10.60209 3.78016 -0.46122 -22.60872 -10.39575 -0.28503 35.28462 90.62031 7.46601 -0.45553 -27.41899 13.53751 -2.38206 42.81927 -97.95633 14.28997 0.15318 36.03457 -1.70099 -5.95877 -21.26494 -8.94956 -5.08959 -3.46469 37.94434 9.48972 1.39384 -27.00682 -8.70845 4.85213 3.33658
-0.00249 -0.00044 -0.00258 32.2193 -23.98356 -9.97706 47.50436 2.10571 -4.82574 -10.6281 3.8039 -0.46147 -22.65531 -10.47125 -0.40169 35.25456 90.64681 7.46849 -0.45107 -27.29493 13.4169 -2.4103 42.75588 -97.88364 14.28405 0.16612 36.01198 -1.84247 -6.15925 -21.26566 -8.94477 -5.0793 -3.45766 37.97111 9.32517 1.14622 -27.0042 -8.72516 4.87248 3.3469
-0.00295 -0.00051 -0.00305 32.3511 -23.9888 -9.96285 47.46826 2.09428 -4.87428 -10.64911 3.79913 -0.46163 -22.71244 -10.55234 -0.52701 35.23932 90.68969 7.48498 -0.44514 -27.1689 13.28496 -2.42712 42.68119 -97.8077 14.27664 0.17895 35.98999 -1.987 -6.37009 -21.26791 -8.93761 -5.06801 -3.44968 37.99733 9.14221 0.82567 -27.00013 -8.75058 4.90006 3.36173
-0.00348 -0.00058 -0.00359 32.48471 -23.99389 -9.96042 47.42676 2.07352 -4.90921 -10.68124 3.85664 -0.46199 -22.7455 -10.62127 -0.63417 35.19119 90.69775 7.47202 -0.44248 -27.04722 13.17755 -2.46742 42.63074 -97.73761 14.2719 0.19213 35.96754 -2.12447 -6.55578 -21.26704 -8.93584 -5.05903 -3.44385 38.02507 8.99798 0.65863 -26.99919 -8.75771 4.9125 3.3671
-0.00418 -0.00066 -0.00431 32.62946 -23.99703 -9.98924 47.37093 2.02961 -4.91265 -10.73921 4.06926 -0.46288 -22.72583 -10.65948 -0.69035 35.06459 90.61183 7.37655 -0.44751 -26.93597 13.13421 -2.58005 42.64401 -97.68902 14.2767 0.20577 35.93767 -2.24794 -6.70024 -21.25687 -8.94566 -5.05464 -3.44273 38.05408 8.96174 0.91962 -27.00639 -8.71357 4.88214 3.34582
-0.00497 -0.00075 -0.00511 32.77462 -24.00032 -10.0301 47.30943 1.97589 -4.90138 -10.80911 4.34716 -0.46397 -22.67886 -10.68488 -0.72864 34.90245 90.49085 7.25187 -0.456 -26.8294 13.11684 -2.71628 42.68207 -97.64329 14.28258 0.22021 35.90877 -2.36349 -6.81528 -21.24386 -8.96139 -5.0528 -3.44394 38.08522 8.96402 1.33314 -27.01679 -8.65131 4.83684 3.31519
-0.00573 -0.00084 -0.00587 32.91594 -24.00453 -10.06619 47.25037 1.92506 -4.89295 -10.87672 4.60578 -0.46495 -22.63652 -10.7146 -0.7757 34.74927 90.38465 7.14159 -0.46385 -26.72159 13.08877 -2.83461 42.71071 -97.59529 14.28805 0.23414 35.88311 -2.47898 -6.92437 -21.23238 -8.9766 -5.05105 -3.44495 38.11714 8.94761 1.67287 -27.02604 -8.59802 4.79917 3.28927
-0.00645 -0.00092 -0.00663 33.07383 -24.00449 -10.09938 47.1925 1.88079 -4.90054 -10.93153 4.82151 -0.46595 -22.62962 -10.7512 -0.8195 34.62768 90.28246 7.02628 -0.46809 -26.60985 13.05308 -2.9771 42.73191 -97.55971 14.29814 0.24722 35.84076 -2.60925 -7.11087 -21.21916 -8.98303 -5.04438 -3.44259 38.14132 8.93649 2.03324 -27.0341 -8.54144 4.75782 3.26128
-0.00726 -0.00102 -0.00741 33.19587 -24.01345 -10.14141 47.13002 1.82057 -4.87152 -11.01533 5.14101 -0.46701 -22.53906 -10.76972 -0.8665 34.43021 90.16462 6.91479 -0.48028 -26.50765 13.04321 -3.08262 42.77411 -97.4885 14.29267 0.26412 35.83484 -2.70765 -7.13429 -21.20979 -9.00869 -5.04815 -3.44752 38.18257 8.92321 2.38495 -27.04529 -8.4876 4.72073 3.23553
-0.00832 -0.00118 -0.00825 33.23054 -24.04638 -10.20535 47.06272 1.71866 -4.743 -11.18018 5.73946 -0.46792 -22.25228 -10.74714 -0.922 34.04577 90.00879 6.81953 -0.51552 -26.42864 13.06399 -3.00948 42.87077 -97.41485 14.30023 0.27386 35.91802 -2.71348 -6.67139 -21.20515 -9.09001 -5.08353 -3.47436 38.26676 8.89715 2.69199 -27.06525 -8.44421 4.69775 3.21681
-0.00947 -0.00137 -0.00909 33.2265 -24.08858 -10.27765 46.9897 1.60113 -4.57854 -11.37294 6.43815 -0.46895 -21.8764 -10.70555 -0.98279 33.58339 89.84275 6.72984 -0.5573 -26.35947 13.11503 -2.90851 42.98675 -97.29226 14.28402 0.2897 36.04055 -2.68881 -6.05394 -21.20637 -9.18971 -5.12861 -3.50797 38.36881 8.86736 2.9829 -27.08805 -8.40448 4.67976 3.20088
-0.01059 -0.00155 -0.00991 33.23304 -24.12702 -10.34585 46.91511 1.49066 -4.43187 -11.55051 7.08593 -0.47012 -21.52366 -10.66918 -1.04355 33.1479 89.67886 6.63806 -0.59609 -26.28709 13.17623 -2.87056 43.09284 -97.12225 14.23872 0.31547 36.15166 -2.68227 -5.53496 -21.20845 -9.27837 -5.16715 -3.53698 38.46498 8.83719 3.26905 -27.10898 -8.36416 4.66037 3.18464
-0.01166 -0.00173 -0.01083 33.27094 -24.16331 -10.41585 46.85817 1.37965 -4.27851 -11.73958 7.76015 -0.47046 -21.24569 -10.64759 -1.09135 32.74813 89.50901 6.54168 -0.63913 -26.20945 13.1424 -2.63319 43.20645 -97.22564 14.35191 0.29165 36.233 -2.65712 -4.8938 -21.19292 -9.37865 -5.21515 -3.57269 38.55143 8.81597 3.60752 -27.1326 -8.31881 4.63696 3.16418
-0.01285 -0.00191 -0.01154 33.23215 -24.20658 -10.48381 46.76286 1.26662 -4.13076 -11.91054 8.40032 -0.47257 -20.78807 -10.58988 -1.17055 32.25474 89.36873 6.45872 -0.66975 -26.14517 13.30705 -2.78869 43.30618 -96.77401 14.14181 0.36751 36.38886 -2.66399 -4.47326 -21.21881 -9.45893 -5.24527 -3.59579 38.66278 8.77617 3.83626 -27.15107 -8.28488 4.62312 3.1531
-0.01431 -0.00212 -0.01168 33.00965 -24.26413 -10.54487 46.56564 1.14827 -4.00714 -12.02953 8.93842 -0.4795 -19.88297 -10.44564 -1.31024 31.53208 89.14263 6.39274 -0.70876 -26.11379 14.06783 -4.17288 43.38413 -94.57339 12.93562 0.76132 36.71397 -2.76269 -4.67768 -21.32996 -9.48036 -5.22768 -3.5844 38.83445 8.67286 3.72004 -27.15598 -8.28316 4.63628 3.16902
